<?xml version="1.0" encoding="UTF-8"?>
<svg xmlns="http://www.w3.org/2000/svg" width="1024" height="1024" viewBox="0 0 1024 1024">
  <defs>
    <linearGradient id="grad" x1="0%" y1="50%" x2="100%" y2="50%">
      <stop offset="0%" stop-color="#6366F1"/>
      <stop offset="100%" stop-color="#22D3EE"/>
    </linearGradient>
  </defs>
  <path d="M 303.00 592.00 L 305.00 593.00 L 306.00 592.00 L 309.00 592.00 L 310.00 591.00 L 314.00 591.00 L 315.00 590.00 L 318.00 590.00 L 319.00 589.00 L 324.00 589.00 L 325.00 588.00 L 328.00 588.00 L 329.00 587.00 L 333.00 587.00 L 334.00 586.00 L 338.00 586.00 L 339.00 585.00 L 342.00 585.00 L 343.00 584.00 L 347.00 584.00 L 348.00 583.00 L 357.00 582.00 L 358.00 581.00 L 361.00 581.00 L 362.00 580.00 L 371.00 579.00 L 372.00 578.00 L 375.00 578.00 L 376.00 577.00 L 380.00 577.00 L 381.00 576.00 L 390.00 575.00 L 391.00 574.00 L 394.00 574.00 L 395.00 573.00 L 399.00 573.00 L 400.00 572.00 L 404.00 572.00 L 405.00 571.00 L 409.00 571.00 L 410.00 570.00 L 414.00 570.00 L 415.00 569.00 L 424.00 568.00 L 425.00 567.00 L 428.00 567.00 L 429.00 566.00 L 433.00 566.00 L 434.00 565.00 L 437.00 565.00 L 438.00 564.00 L 442.00 564.00 L 443.00 563.00 L 445.00 564.00 L 449.00 564.00 L 450.00 565.00 L 453.00 565.00 L 454.00 566.00 L 463.00 567.00 L 464.00 568.00 L 470.00 568.00 L 471.00 569.00 L 481.00 569.00 L 482.00 570.00 L 515.00 570.00 L 516.00 569.00 L 524.00 569.00 L 525.00 568.00 L 531.00 568.00 L 532.00 567.00 L 537.00 567.00 L 538.00 566.00 L 541.00 566.00 L 542.00 565.00 L 546.00 565.00 L 547.00 564.00 L 554.00 563.00 L 555.00 562.00 L 557.00 562.00 L 558.00 561.00 L 561.00 561.00 L 562.00 560.00 L 564.00 560.00 L 565.00 559.00 L 570.00 558.00 L 573.00 556.00 L 575.00 556.00 L 576.00 555.00 L 581.00 554.00 L 586.00 551.00 L 588.00 551.00 L 614.00 538.00 L 616.00 536.00 L 624.00 532.00 L 629.00 528.00 L 632.00 527.00 L 640.00 521.00 L 643.00 520.00 L 645.00 518.00 L 648.00 517.00 L 650.00 515.00 L 653.00 514.00 L 655.00 512.00 L 662.00 509.00 L 664.00 507.00 L 676.00 501.00 L 678.00 501.00 L 686.00 497.00 L 688.00 497.00 L 689.00 496.00 L 691.00 496.00 L 692.00 495.00 L 694.00 495.00 L 695.00 494.00 L 697.00 494.00 L 701.00 492.00 L 708.00 491.00 L 712.00 489.00 L 716.00 489.00 L 717.00 488.00 L 720.00 488.00 L 722.00 487.00 L 722.00 485.00 L 717.00 482.00 L 715.00 482.00 L 712.00 480.00 L 710.00 480.00 L 707.00 478.00 L 705.00 478.00 L 702.00 476.00 L 700.00 476.00 L 686.00 469.00 L 683.00 466.00 L 679.00 464.00 L 676.00 461.00 L 675.00 461.00 L 673.00 459.00 L 670.00 458.00 L 668.00 456.00 L 662.00 453.00 L 660.00 453.00 L 657.00 451.00 L 655.00 451.00 L 654.00 450.00 L 652.00 450.00 L 648.00 448.00 L 644.00 448.00 L 643.00 447.00 L 639.00 447.00 L 638.00 446.00 L 632.00 446.00 L 631.00 445.00 L 619.00 445.00 L 618.00 444.00 L 601.00 444.00 L 600.00 445.00 L 590.00 445.00 L 589.00 446.00 L 580.00 446.00 L 579.00 447.00 L 573.00 447.00 L 572.00 448.00 L 566.00 448.00 L 565.00 449.00 L 559.00 449.00 L 558.00 450.00 L 554.00 450.00 L 553.00 451.00 L 548.00 451.00 L 547.00 452.00 L 544.00 452.00 L 542.00 453.00 L 542.00 455.00 L 548.00 458.00 L 550.00 458.00 L 553.00 460.00 L 555.00 460.00 L 560.00 463.00 L 562.00 463.00 L 567.00 466.00 L 579.00 466.00 L 580.00 465.00 L 588.00 465.00 L 589.00 464.00 L 603.00 464.00 L 604.00 463.00 L 607.00 463.00 L 608.00 464.00 L 623.00 464.00 L 624.00 465.00 L 629.00 465.00 L 630.00 466.00 L 634.00 466.00 L 635.00 467.00 L 638.00 467.00 L 639.00 468.00 L 641.00 468.00 L 642.00 469.00 L 644.00 469.00 L 645.00 470.00 L 650.00 471.00 L 666.00 479.00 L 667.00 480.00 L 667.00 484.00 L 666.00 485.00 L 645.00 495.00 L 643.00 497.00 L 638.00 499.00 L 636.00 501.00 L 633.00 502.00 L 631.00 504.00 L 628.00 505.00 L 623.00 509.00 L 618.00 511.00 L 616.00 513.00 L 613.00 514.00 L 611.00 516.00 L 606.00 518.00 L 604.00 520.00 L 584.00 530.00 L 582.00 530.00 L 577.00 533.00 L 575.00 533.00 L 567.00 537.00 L 565.00 537.00 L 564.00 538.00 L 562.00 538.00 L 561.00 539.00 L 559.00 539.00 L 555.00 541.00 L 552.00 541.00 L 548.00 543.00 L 545.00 543.00 L 544.00 544.00 L 540.00 544.00 L 539.00 545.00 L 536.00 545.00 L 535.00 546.00 L 531.00 546.00 L 530.00 547.00 L 524.00 547.00 L 523.00 548.00 L 517.00 548.00 L 516.00 549.00 L 507.00 549.00 L 506.00 550.00 L 480.00 550.00 L 479.00 549.00 L 468.00 549.00 L 467.00 548.00 L 460.00 548.00 L 459.00 547.00 L 449.00 547.00 L 448.00 548.00 L 444.00 548.00 L 443.00 549.00 L 440.00 549.00 L 439.00 550.00 L 435.00 550.00 L 434.00 551.00 L 431.00 551.00 L 430.00 552.00 L 426.00 552.00 L 425.00 553.00 L 422.00 553.00 L 421.00 554.00 L 418.00 554.00 L 417.00 555.00 L 413.00 555.00 L 412.00 556.00 L 408.00 556.00 L 407.00 557.00 L 402.00 554.00 L 402.00 550.00 L 403.00 549.00 L 436.00 533.00 L 438.00 531.00 L 478.00 511.00 L 480.00 511.00 L 495.00 503.00 L 497.00 503.00 L 506.00 498.00 L 508.00 498.00 L 510.00 497.00 L 510.00 495.00 L 506.00 493.00 L 504.00 493.00 L 503.00 492.00 L 501.00 492.00 L 500.00 491.00 L 498.00 491.00 L 497.00 490.00 L 495.00 490.00 L 494.00 489.00 L 492.00 489.00 L 491.00 488.00 L 489.00 488.00 L 488.00 487.00 L 483.00 486.00 L 482.00 485.00 L 479.00 485.00 L 478.00 484.00 L 476.00 484.00 L 472.00 482.00 L 469.00 482.00 L 465.00 480.00 L 462.00 480.00 L 461.00 479.00 L 459.00 479.00 L 455.00 477.00 L 452.00 477.00 L 451.00 476.00 L 449.00 476.00 L 448.00 475.00 L 445.00 475.00 L 441.00 473.00 L 438.00 473.00 L 434.00 471.00 L 427.00 470.00 L 423.00 468.00 L 420.00 468.00 L 419.00 467.00 L 415.00 467.00 L 414.00 466.00 L 411.00 466.00 L 407.00 464.00 L 403.00 464.00 L 402.00 463.00 L 399.00 463.00 L 398.00 462.00 L 395.00 462.00 L 394.00 461.00 L 391.00 461.00 L 390.00 460.00 L 386.00 460.00 L 385.00 459.00 L 382.00 459.00 L 381.00 458.00 L 378.00 458.00 L 377.00 457.00 L 374.00 457.00 L 373.00 456.00 L 364.00 455.00 L 363.00 454.00 L 360.00 454.00 L 359.00 453.00 L 356.00 453.00 L 355.00 452.00 L 351.00 452.00 L 350.00 451.00 L 347.00 451.00 L 346.00 450.00 L 343.00 450.00 L 342.00 449.00 L 338.00 449.00 L 337.00 448.00 L 334.00 448.00 L 333.00 447.00 L 329.00 447.00 L 328.00 446.00 L 325.00 446.00 L 324.00 445.00 L 320.00 445.00 L 319.00 444.00 L 315.00 444.00 L 314.00 443.00 L 309.00 443.00 L 308.00 442.00 L 301.00 441.00 L 299.00 442.00 L 299.00 444.00 L 302.00 447.00 L 303.00 447.00 L 312.00 456.00 L 313.00 456.00 L 318.00 461.00 L 319.00 461.00 L 330.00 470.00 L 336.00 473.00 L 344.00 479.00 L 349.00 481.00 L 351.00 483.00 L 373.00 494.00 L 375.00 494.00 L 380.00 497.00 L 385.00 498.00 L 388.00 500.00 L 393.00 501.00 L 396.00 503.00 L 398.00 503.00 L 399.00 504.00 L 402.00 504.00 L 403.00 505.00 L 406.00 505.00 L 407.00 506.00 L 410.00 506.00 L 411.00 507.00 L 414.00 507.00 L 415.00 508.00 L 426.00 509.00 L 431.00 512.00 L 431.00 517.00 L 430.00 518.00 L 423.00 521.00 L 421.00 523.00 L 407.00 530.00 L 405.00 532.00 L 400.00 534.00 L 398.00 536.00 L 386.00 542.00 L 384.00 544.00 L 381.00 545.00 L 379.00 547.00 L 374.00 549.00 L 372.00 551.00 L 367.00 553.00 L 365.00 555.00 L 353.00 561.00 L 351.00 563.00 L 348.00 564.00 L 346.00 566.00 L 337.00 570.00 L 335.00 572.00 L 332.00 573.00 L 330.00 575.00 L 323.00 578.00 L 321.00 580.00 L 318.00 581.00 L 316.00 583.00 L 309.00 586.00 L 307.00 588.00 L 304.00 589.00 L 303.00 590.00 Z" fill="url(#grad)"/>
</svg>
